Coordinates
version=1
nRows=14
nColumns=40
inDegrees=yes

Units are S.I. units (second, meters, Newtons, ...)
Angles are in degrees.

endheader
time	pelvis_tilt	pelvis_list	pelvis_rotation	pelvis_tx	pelvis_ty	pelvis_tz	hip_flexion_r	hip_adduction_r	hip_rotation_r	knee_angle_r	knee_angle_r_beta	ankle_angle_r	subtalar_angle_r	mtp_angle_r	hip_flexion_l	hip_adduction_l	hip_rotation_l	knee_angle_l	knee_angle_l_beta	ankle_angle_l	subtalar_angle_l	mtp_angle_l	lumbar_extension	lumbar_bending	lumbar_rotation	arm_flex_r	arm_add_r	arm_rot_r	elbow_flex_r	pro_sup_r	wrist_flex_r	wrist_dev_r	arm_flex_l	arm_add_l	arm_rot_l	elbow_flex_l	pro_sup_l	wrist_flex_l	wrist_dev_l
     34.56528571	     -3.36234444	     -3.89206320	      4.72844616	      0.82096729	      0.93290023	      0.48451486	      8.62923301	      2.59915446	    -19.08188609	     13.67246669	     13.67246669	     10.79943092	      1.72105228	     -7.13415993	     30.84390945	     -9.67510307	     -1.15373494	     32.90338120	     32.90338120	     11.83002209	    -16.21217115	     13.51931203	    -10.33548816	      7.76200261	      4.08904775	     24.57086517	    -15.51221912	      1.36526226	     49.08876524	     45.47336543	      0.00000000	      0.00000000	     -8.61699919	     -6.71560551	     -0.55610719	     30.45527076	     45.59056262	      0.00000000	      0.00000000
     34.57807143	     -3.46221820	     -3.89978649	      5.02283032	      0.82053948	      0.93257881	      0.48443443	      8.15164901	      2.68756276	    -19.22871257	     13.36399342	     13.36399342	     11.02432813	      1.70390225	     -7.26018851	     31.05127121	     -9.20050521	     -0.78365657	     29.58022594	     29.58022594	     11.58342624	    -14.84554742	     13.38489539	    -10.24771486	      7.76046406	      4.06329933	     25.99693041	    -15.53395003	      1.45165808	     50.81011456	     45.41503829	      0.00000000	      0.00000000	     -9.43382127	     -6.57346350	     -0.33304327	     30.22443181	     45.54454627	      0.00000000	      0.00000000
     34.59085714	     -3.52297439	     -4.04620208	      5.33646512	      0.82030401	      0.93217060	      0.48433256	      7.54144185	      2.94895845	    -19.51845975	     12.86890619	     12.86890619	     11.18954731	      1.94955862	     -7.52449436	     31.22565711	     -8.89540452	     -0.44762306	     26.43854255	     26.43854255	     10.76344477	    -13.24300380	     11.54684035	    -10.22219116	      7.91396350	      4.08858206	     26.73401166	    -15.99142872	      2.05539015	     54.71874089	     45.25681713	      0.00000000	      0.00000000	    -10.32458294	     -6.54775299	      0.34417309	     30.47411925	     45.43003904	      0.00000000	      0.00000000
     34.60364286	     -3.60793083	     -4.05507705	      5.59803188	      0.81995763	      0.93184664	      0.48409413	      7.08488170	      3.02072937	    -19.66191088	     12.64538301	     12.64538301	     11.38707784	      1.92322865	     -7.56995794	     31.39257395	     -8.44926505	     -0.22642015	     23.57798541	     23.57798541	     10.54391569	    -11.34929966	     11.48571156	    -10.17345998	      7.90121646	      4.14385847	     28.18927815	    -15.95289889	      2.00437687	     56.22011593	     45.21571260	      0.00000000	      0.00000000	    -10.95598355	     -6.41305874	      0.62218940	     30.27124665	     45.38073705	      0.00000000	      0.00000000
     34.61642857	     -3.66956856	     -4.22451834	      5.88566014	      0.81980582	      0.93139956	      0.48389161	      6.46974625	      3.30448409	    -19.98436056	     12.15676017	     12.15676017	     11.62233858	      2.28672732	     -7.55146635	     31.66140645	     -8.25425016	     -0.32625809	     21.15703996	     21.15703996	      9.94868941	     -9.11338127	     10.17351810	    -10.14028793	      8.06161886	      4.29076624	     28.89959321	    -16.23469564	      2.15091448	     59.70792679	     45.10348451	      0.00000000	      0.00000000	    -11.69381121	     -6.42931934	      1.45344486	     30.61833996	     45.25296905	      0.00000000	      0.00000000
     34.62921429	     -3.82969006	     -4.30519869	      6.12214973	      0.81959179	      0.93090677	      0.48356014	      6.08176169	      3.44853712	    -20.13215765	     11.90720673	     11.90720673	     11.85080860	      2.31864711	     -7.56811751	     31.95092715	     -7.88187024	     -0.21543198	     18.96513256	     18.96513256	      9.66599922	     -7.48132153	     10.39065225	     -9.92799910	      8.10499064	      4.27790192	     30.35646934	    -16.04970336	      2.02955816	     60.93770345	     45.07473326	      0.00000000	      0.00000000	    -12.22736764	     -6.30737942	      1.64030154	     30.43936119	     45.21929200	      0.00000000	      0.00000000
     34.64200000	     -3.83765223	     -4.33430562	      6.33707553	      0.81966671	      0.93066765	      0.48317434	      5.38116834	      3.59102844	    -20.33235799	     11.41960791	     11.41960791	     12.08582550	      2.61645166	     -7.49714274	     32.06455033	     -7.56430074	     -0.54159509	     17.16768346	     17.16768346	      9.37657306	     -5.72343840	     10.39090057	     -9.92502689	      8.07788323	      3.93939575	     31.66141901	    -15.55087764	      1.99489777	     62.92838419	     45.01689107	      0.00000000	      0.00000000	    -12.91117708	     -6.26833244	      1.89511313	     30.35670264	     45.17346435	      0.00000000	      0.00000000
     34.65478571	     -3.84479565	     -4.52864699	      6.52249445	      0.81993447	      0.93021479	      0.48279947	      4.64650077	      3.90378688	    -20.73443659	     10.87517418	     10.87517418	     12.38608753	      3.38028261	     -7.18957468	     32.38289258	     -7.50258006	     -1.18531476	     16.07861421	     16.07861421	      9.05638436	     -3.88612511	      9.49506459	     -9.94026320	      8.24309029	      4.21397172	     32.07136709	    -15.87605837	      1.96119697	     67.00527806	     44.89962344	      0.00000000	      0.00000000	    -13.59256229	     -6.43433145	      2.72309532	     31.32033001	     45.05267291	      0.00000000	      0.00000000
     34.66757143	     -3.99652713	     -4.63216472	      6.64654358	      0.82004765	      0.92956472	      0.48226008	      4.23900330	      4.06179705	    -20.76356087	     10.64003674	     10.64003674	     12.63980468	      3.48787293	     -7.18233680	     32.72348715	     -7.24397295	     -1.46810280	     15.17261685	     15.17261685	      8.75596376	     -3.33164204	      9.65646169	     -9.74064477	      8.34593056	      4.30021377	     33.49510554	    -15.67397080	      1.82533901	     68.10004007	     44.87638084	      0.00000000	      0.00000000	    -13.94434129	     -6.38749936	      2.88311506	     31.24488073	     45.02645602	      0.00000000	      0.00000000
     34.68035714	     -3.93378088	     -4.71467582	      6.73172069	      0.82068047	      0.92922438	      0.48179005	      3.42529127	      4.27645486	    -20.92065714	     10.14140924	     10.14140924	     12.88657061	      3.88273381	     -7.04499373	     32.65679084	     -7.07973202	     -2.02427994	     14.43096210	     14.43096210	      8.56534919	     -2.74543414	      9.69005218	     -9.71391582	      8.32121938	      3.89383359	     34.63668436	    -14.91521428	      1.82918624	     70.19226274	     44.81548856	      0.00000000	      0.00000000	    -14.52388615	     -6.32993563	      3.19010388	     31.30803357	     44.97690076	      0.00000000	      0.00000000
     34.69314286	     -3.91846956	     -4.86396333	      6.75539952	      0.82147179	      0.92857205	      0.48124273	      2.69680859	      4.50608429	    -21.22041685	      9.75435395	      9.75435395	     13.41285553	      4.77037144	     -6.46634869	     32.77113311	     -7.03910828	     -2.66962095	     14.32811873	     14.32811873	      8.34621022	     -2.48390998	      9.14711210	     -9.70899936	      8.39414824	      4.43108439	     34.64263847	    -15.28966963	      1.56412854	     74.44000108	     44.71775882	      0.00000000	      0.00000000	    -15.14994979	     -6.79192571	      4.61864454	     32.83167437	     44.79371834	      0.00000000	      0.00000000
     34.70592857	     -3.92910281	     -5.01840645	      6.73960558	      0.82234299	      0.92779840	      0.48063728	      2.04332042	      4.74233528	    -21.24521631	      9.43632814	      9.43632814	     13.70806308	      5.09241533	     -6.34587910	     32.80311613	     -6.99553316	     -3.06647555	     14.40263754	     14.40263754	      8.16294872	     -2.82454608	      9.18044806	     -9.59312619	      8.48928992	      4.30768003	     35.72493514	    -14.70948707	      1.51709323	     75.98149765	     44.68199055	      0.00000000	      0.00000000	    -15.54497130	     -6.82453037	      5.05428416	     32.93521233	     44.73803344	      0.00000000	      0.00000000
     34.71871429	     -4.01387003	     -5.13150910	      6.58216337	      0.82335405	      0.92679803	      0.48002737	      1.55314892	      4.88176520	    -21.10696675	      9.31226347	      9.31226347	     14.06942428	      5.32545791	     -6.36776673	     32.78590491	     -6.98506522	     -3.55616472	     14.63653714	     14.63653714	      7.95044534	     -3.29898504	      9.24521158	     -9.35132895	      8.53283327	      4.54095762	     36.79991746	    -14.46280453	      1.47395677	     76.90980415	     44.66026544	      0.00000000	      0.00000000	    -15.74371741	     -6.86587884	      5.18205974	     33.04634096	     44.72073048	      0.00000000	      0.00000000
     34.73150000	     -3.96584413	     -5.33864584	      6.48750873	      0.82472661	      0.92576161	      0.47927511	      0.89224876	      5.10516380	    -21.27222381	      9.23046941	      9.23046941	     14.89396028	      6.10526312	     -5.13550768	     32.58056061	     -7.04561225	     -3.67692387	     15.01893031	     15.01893031	      7.43393249	     -4.12841840	      8.72240261	     -9.32461133	      8.67272997	      5.04209409	     36.66958096	    -14.54541881	      0.97675717	     80.81038788	     44.64652872	      0.00000000	      0.00000000	    -16.35102162	     -7.75921342	      8.57790903	     35.05661774	     44.38843078	      0.00000000	      0.00000000
